# xmcd
#
# Track frame offsets: 
#        150
#        15111
#        27118
#        36278
#        53677
#        68315
#        82124
#        96113
#        109904
#        125526
#        148335
#        162527
#        178481
#        189966
#        210425
#        221979
#        236823
#        253095
#        262786
#
# Disc length: 3630 seconds
#
# Revision: 0
# Processed by: cddbd v1.5.2PL0 Copyright (c) Steve Scherf et al.
# Submitted via: ExactAudioCopy v0.95a5
#
DISCID=0e0e2c13
DTITLE=Various Artist - Maaseutumusiikkia, Vol 2
DYEAR=1900
DGENRE=Country
TTITLE0=Dortmunder and Pekka Myllykoski - Luomujytää
TTITLE1=Rik Lipton - Mun Nainen
TTITLE2=Markojuhani Rautavaara and Ants In The Pants - Kotipolttoista
TTITLE3=Tarya - Aurinkoon
TTITLE4=Artturi Ketola Trio - Mamma Ja Perunamaa
TTITLE5=Hannu Sainio - Nojaan Lapioon
TTITLE6=Jussi Alanko and Alligaattorit - Kypsät Naiset
TTITLE7=Tomi Pulkkinen - Postitalonpojan Laulu
TTITLE8=Katja Härkin - Suomenhevonen
TTITLE9=Suonna Kononen - Hengen Mysteeri
TTITLE10=Jari Rättyä - Kurtisaanivalssi
TTITLE11=Huojuva Lato - Kosmiset Huolet
TTITLE12=Los Olvidados - Lippalakki
TTITLE13=Metakka - Vapaa
TTITLE14=Kantriseireenit - Kedonkukkanen
TTITLE15=Kevyet Mullat - Balladi Villistä Lännestä
TTITLE16=Jaska Salmi and Kammarin Unioni - Vuosien Virta
TTITLE17=Tuhatkauno - Lieksan Tyttö
TTITLE18=Alli And The Gators - Gospellaulu Johdatuksesta
EXTD=
EXTT0=
EXTT1=
EXTT2=
EXTT3=
EXTT4=
EXTT5=
EXTT6=
EXTT7=
EXTT8=
EXTT9=
EXTT10=
EXTT11=
EXTT12=
EXTT13=
EXTT14=
EXTT15=
EXTT16=
EXTT17=
EXTT18=
PLAYORDER=
